<?xml version="1.0" encoding="UTF-8"?>
<svg width="17px" height="32px" viewBox="0 0 17 32" version="1.1" xmlns="http://www.w3.org/2000/svg" xmlns:xlink="http://www.w3.org/1999/xlink">
    <!-- Generator: Sketch 44.1 (41455) - http://www.bohemiancoding.com/sketch -->
    <title>arrow-l@2x</title>
    <desc>Created with Sketch.</desc>
    <defs></defs>
    <g id="Page-1" stroke="none" stroke-width="1" fill="none" fill-rule="evenodd">
        <g id="培训申请列表" transform="translate(-81.000000, -158.000000)" fill="#666666">
            <g id="Group" transform="translate(0.000000, 128.000000)">
                <path d="M83.1025138,61.6204107 L96.945833,47.7258165 C97.8936649,46.7700643 97.8936649,45.2251642 96.945833,44.2692501 L83.1025138,30.374656 C82.7955043,30.0556269 82.3408142,29.9277887 81.9133306,30.0399707 C81.4857261,30.1523146 81.1517923,30.4874853 81.0398227,30.9167141 C80.9280546,31.3457407 81.055421,31.8021553 81.3733131,32.110302 L94.3471953,45.1335333 C94.8168791,45.6047546 94.8228444,46.385417 94.3471953,46.8629897 L81.3721846,59.8848051 C80.8946814,60.3644006 80.8950038,61.1417457 81.3728295,61.621058 C81.8506551,62.1003298 82.6249703,62.1000061 83.1025138,61.6204107 Z" id="arrow-l" transform="translate(89.328353, 45.990155) rotate(-180.000000) translate(-89.328353, -45.990155) "></path>
            </g>
        </g>
    </g>
</svg>