<?xml version="1.0" encoding="UTF-8"?>
<svg width="30px" height="30px" viewBox="0 0 30 30" version="1.1" xmlns="http://www.w3.org/2000/svg" xmlns:xlink="http://www.w3.org/1999/xlink">
    <!-- Generator: Sketch 44.1 (41455) - http://www.bohemiancoding.com/sketch -->
    <title>撤回@2x</title>
    <desc>Created with Sketch.</desc>
    <defs>
        <polygon id="path-1" points="0.00221674877 0.0354990323 0.00221674877 29.9634291 29.9752848 29.9634291 29.9752848 0.0354990323"></polygon>
    </defs>
    <g id="Page-1" stroke="none" stroke-width="1" fill="none" fill-rule="evenodd">
        <g id="培训申请详情" transform="translate(-135.000000, -1387.000000)">
            <g id="Group-6" transform="translate(0.000000, 1362.000000)">
                <g id="Group-3" transform="translate(135.000000, 20.000000)">
                    <g id="撤回" transform="translate(0.000000, 5.000000)">
                        <mask id="mask-2" fill="white">
                            <use xlink:href="#path-1"></use>
                        </mask>
                        <g id="Clip-2"></g>
                        <path d="M0.0183251232,17.5213553 C-0.0936576355,16.904652 0.319802956,16.3147253 0.94182266,16.2036996 C1.56384236,16.0926374 2.15889163,16.5026007 2.27087438,17.119304 C3.27044335,22.9948352 8.25956897,27.3887179 14.2622291,27.6798901 C20.2647783,27.9710989 25.6627463,24.080989 27.2361207,18.3303663 C28.8093473,12.5797436 26.1338054,6.51860806 20.8054064,3.76263736 C15.4771182,1.00666667 8.93238916,2.29886447 5.07543103,6.86831502 L7.90237685,6.86831502 C8.54312808,6.86831502 9.06254926,7.3832967 9.06254926,8.01846154 C9.06254926,8.65358974 8.54312808,9.16857143 7.90237685,9.16857143 L2.12453202,9.16857143 C1.50251232,9.16857143 0.998128079,8.66864469 0.998128079,8.05194139 L0.998128079,2.25637363 C0.998128079,1.62120879 1.51751232,1.10622711 2.15830049,1.10622711 C2.79894089,1.10622711 3.31832512,1.62120879 3.31832512,2.25637363 L3.31832512,5.38307692 C7.86642857,0.00776556777 15.5707759,-1.51282051 21.8483867,1.72608059 C28.1258498,4.96512821 31.290665,12.0935531 29.4598153,18.8709524 C27.6289655,25.6483516 21.2944951,30.2543223 14.2244335,29.9491209 C7.15448276,29.6437729 1.24777094,24.5089744 0.0183251232,17.5994872 L0.0183251232,17.5213553 Z" id="Fill-1" fill="#000000" mask="url(#mask-2)"></path>
                    </g>
                </g>
            </g>
        </g>
    </g>
</svg>