<?xml version="1.0" encoding="UTF-8"?>
<svg width="31px" height="32px" viewBox="0 0 31 32" version="1.1" xmlns="http://www.w3.org/2000/svg" xmlns:xlink="http://www.w3.org/1999/xlink">
    <!-- Generator: Sketch 44.1 (41455) - http://www.bohemiancoding.com/sketch -->
    <title>d-arrow-r@2x</title>
    <desc>Created with Sketch.</desc>
    <defs>
        <polygon id="path-1" points="0.00241834976 0.0197005542 0.00241834976 32.0000102 30.108656 32.0000102 30.108656 0.0197005542"></polygon>
    </defs>
    <g id="Page-1" stroke="none" stroke-width="1" fill="none" fill-rule="evenodd">
        <g id="培训申请列表" transform="translate(-689.000000, -158.000000)">
            <g id="Group" transform="translate(0.000000, 128.000000)">
                <g id="d-arrow-r" transform="translate(689.000000, 30.000000)">
                    <mask id="mask-2" fill="white">
                        <use xlink:href="#path-1"></use>
                    </mask>
                    <g id="Clip-2"></g>
                    <path d="M15.5545838,31.6401113 L29.397903,17.7455171 C30.3455737,16.7897649 30.3455737,15.2448647 29.397903,14.2889507 L15.5545838,0.394356511 C15.0747026,-0.0707155499 14.3120357,-0.0640809102 13.8403366,0.409405815 C13.3684762,0.882852086 13.3618661,1.64846523 13.8253831,2.13000253 L26.7992653,15.1532339 C27.2687879,15.6244551 27.2749144,16.4051176 26.7992653,16.8826903 L13.8240933,29.9045057 C13.3465902,30.3841011 13.3469126,31.1614463 13.8247382,31.6407585 C14.3026041,32.1200303 15.0770404,32.1197067 15.5545838,31.6401113 Z" id="Fill-1" fill="#333333" mask="url(#mask-2)"></path>
                    <path d="M2.10251328,31.6401113 L15.9458325,17.7455171 C16.8936644,16.7897649 16.8936644,15.2448647 15.9458325,14.2889507 L2.10251328,0.394356511 C1.79550378,0.0753274336 1.34081372,-0.0525107459 0.913330092,0.0596713021 C0.485725549,0.172015171 0.151791753,0.507185841 0.0398221594,0.936414665 C-0.0719459053,1.36544121 0.0554205153,1.82185588 0.373312591,2.13000253 L13.3471948,15.1532339 C13.8168786,15.6244551 13.8228439,16.4051176 13.3471948,16.8826903 L0.372184028,29.9045057 C-0.105319132,30.3841011 -0.104996685,31.1614463 0.372828921,31.6407585 C0.850654528,32.1200303 1.62496981,32.1197067 2.10251328,31.6401113 Z" id="Fill-3" fill="#333333" mask="url(#mask-2)"></path>
                </g>
            </g>
        </g>
    </g>
</svg>