<?xml version="1.0" encoding="UTF-8"?>
<svg width="30px" height="30px" viewBox="0 0 30 30" version="1.1" xmlns="http://www.w3.org/2000/svg" xmlns:xlink="http://www.w3.org/1999/xlink">
    <!-- Generator: Sketch 44.1 (41455) - http://www.bohemiancoding.com/sketch -->
    <title>修改@2x</title>
    <desc>Created with Sketch.</desc>
    <defs>
        <polygon id="path-1" points="0.0024691358 0.0318930041 0.0024691358 29.9999588 29.9657977 29.9999588 29.9657977 0.0318930041"></polygon>
    </defs>
    <g id="Page-1" stroke="none" stroke-width="1" fill="none" fill-rule="evenodd">
        <g id="培训申请详情" transform="translate(-510.000000, -1387.000000)">
            <g id="Group-6" transform="translate(0.000000, 1362.000000)">
                <g id="Group-4" transform="translate(510.000000, 20.000000)">
                    <g id="修改" transform="translate(0.000000, 5.000000)">
                        <mask id="mask-2" fill="white">
                            <use xlink:href="#path-1"></use>
                        </mask>
                        <g id="Clip-2"></g>
                        <path d="M27.2635391,29.9999588 L2.75123457,29.9999588 C1.25111111,29.9999588 0,28.8013992 0,27.254321 L0,2.79074074 C0,1.29238683 1.25111111,0.0451028807 2.75123457,0.0451028807 L19.1091358,0.0451028807 C19.6090535,0.0451028807 20.0099588,0.443950617 20.0099588,0.944032922 C20.0099588,1.44222222 19.6090535,1.84312757 19.1109053,1.84312757 L3.65209877,1.84312757 C3.17452675,1.84053498 2.71555556,2.02880658 2.37736626,2.36604938 C2.0391358,2.70329218 1.84942387,3.16144033 1.85041152,3.63917695 L1.85041152,26.3067078 C1.85041152,27.3049383 2.65205761,28.1046914 3.65209877,28.1046914 L26.3626749,28.1046914 C26.8407407,28.1071193 27.2998765,27.9187243 27.6382305,27.5809877 C27.9764609,27.2433745 28.1660082,26.7846091 28.1644033,26.3067078 L28.1644033,10.0312757 C28.1644033,9.53119342 28.5633745,9.13238683 29.0634568,9.13238683 C29.5653498,9.13238683 29.964321,9.53119342 29.964321,10.0312757 L29.964321,27.254321 C30.0147737,28.8031687 28.7655967,29.9999588 27.2635391,29.9999588 Z M12.4546502,17.9685185 C12.0916872,18.319465 11.5160494,18.319465 11.1530864,17.9685185 C10.8026337,17.6068313 10.8026337,17.0323045 11.1530864,16.6706173 L27.4620576,0.294115226 C27.8248971,-0.0555144033 28.3992593,-0.0555144033 28.761893,0.294115226 C29.1123457,0.655802469 29.1123457,1.23032922 28.761893,1.59201646 L12.4546502,17.9685185 Z" id="Fill-1" fill="#000000" mask="url(#mask-2)"></path>
                    </g>
                </g>
            </g>
        </g>
    </g>
</svg>