<?xml version="1.0" encoding="UTF-8"?>
<svg width="140px" height="140px" viewBox="0 0 140 140" version="1.1" xmlns="http://www.w3.org/2000/svg" xmlns:xlink="http://www.w3.org/1999/xlink">
    <!-- Generator: Sketch 44.1 (41455) - http://www.bohemiancoding.com/sketch -->
    <title>head-pic@2x</title>
    <desc>Created with Sketch.</desc>
    <defs>
        <polygon id="path-1" points="0.0049455366 0.0710815905 0.0049455366 50.0932546 67.5229773 50.0932546 67.5229773 0.0710815905"></polygon>
    </defs>
    <g id="Page-1" stroke="none" stroke-width="1" fill="none" fill-rule="evenodd">
        <g id="个人中心-copy-4" transform="translate(-309.000000, -182.000000)">
            <g id="Group-17" transform="translate(0.000000, 128.000000)">
                <g id="Group-12-Copy" transform="translate(305.000000, 50.000000)">
                    <g id="head-pic" transform="translate(4.000000, 4.000000)">
                        <circle id="Oval-2" fill="#FFFFFF" cx="70" cy="70" r="70"></circle>
                        <g id="相机-2" transform="translate(36.000000, 40.000000)">
                            <g id="Group-3" transform="translate(0.000000, 6.230912)">
                                <mask id="mask-2" fill="white">
                                    <use xlink:href="#path-1"></use>
                                </mask>
                                <g id="Clip-2"></g>
                                <path d="M58.3792571,0.0710815905 L37.2080743,0.0710815905 C36.0424938,0.0710815905 35.0978138,1.01071955 35.0978138,2.1697512 C35.0978138,3.3291108 36.0424938,4.26874875 37.2080743,4.26874875 L58.3792571,4.26874875 C61.0986428,4.26874875 63.3028685,6.46120999 63.3028685,9.16608177 L63.3028685,40.9983364 C63.3028685,43.7028803 61.0986428,45.8956695 58.3792571,45.8956695 L9.14380262,45.8956695 C6.42466417,45.8956695 4.22010881,43.7028803 4.22010881,40.9983364 L4.22010881,9.16608177 C4.22010881,6.46120999 6.42466417,4.26874875 9.14380262,4.26874875 L14.2081145,4.26874875 C15.3733654,4.26874875 16.3180453,3.3291108 16.3180453,2.1697512 C16.3180453,1.01071955 15.3733654,0.0710815905 14.2081145,0.0710815905 L9.14380262,0.0710815905 C4.0939152,0.0710815905 0,4.14281874 0,9.16608177 L0,40.9983364 C0,46.0211895 4.0939152,50.0932546 9.14380262,50.0932546 L58.3792571,50.0932546 C63.4293918,50.0932546 67.5229773,46.0211895 67.5229773,40.9983364 L67.5229773,9.16608177 C67.5229773,4.14281874 63.4293918,0.0710815905 58.3792571,0.0710815905 Z" id="Fill-1" fill="#D8D8D8" mask="url(#mask-2)"></path>
                            </g>
                            <path d="M14.8411432,31.3480472 C14.8411432,39.4636464 21.4525838,46.0398003 29.6117301,46.0398003 C37.7705467,46.0398003 44.382317,39.4636464 44.382317,31.3480472 C44.382317,23.232694 37.7705467,16.6562121 29.6117301,16.6562121 C21.4525838,16.6562121 14.8411432,23.232694 14.8411432,31.3480472 Z M29.6117301,20.8538793 C35.4494415,20.8538793 40.1622082,25.541083 40.1622082,31.3480472 C40.1622082,37.1549294 35.4494415,41.8422151 29.6117301,41.8422151 C23.773689,41.8422151 19.061252,37.0847497 19.061252,31.3480472 C19.061252,25.6112627 23.773689,20.8538793 29.6117301,20.8538793 Z" id="Fill-4" fill="#D8D8D8"></path>
                            <path d="M53.3151925,17.5657613 C53.3151925,19.1113555 54.5747382,20.3641788 56.1286258,20.3641788 C57.682431,20.3641788 58.9420592,19.1113555 58.9420592,17.5657613 C58.9420592,16.0202492 57.682431,14.7673439 56.1286258,14.7673439 C54.5747382,14.7673439 53.3151925,16.0202492 53.3151925,17.5657613 Z" id="Fill-5" fill="#D8D8D8"></path>
                            <path d="M17.2323926,4.20307822 L34.1132399,4.20307822 C35.2784908,4.20307822 36.2231707,3.26344026 36.2231707,2.10440861 C36.2231707,0.945130997 35.2784908,0.00549304102 34.1132399,0.00549304102 L17.2323926,0.00549304102 C16.0672242,0.00549304102 15.1222145,0.945130997 15.1222145,2.10440861 C15.1222145,3.26344026 16.0672242,4.20307822 17.2323926,4.20307822 Z" id="Fill-6" fill="#D8D8D8"></path>
                        </g>
                    </g>
                </g>
            </g>
        </g>
    </g>
</svg>