<?xml version="1.0" encoding="UTF-8"?>
<svg width="51px" height="50px" viewBox="0 0 51 50" version="1.1" xmlns="http://www.w3.org/2000/svg" xmlns:xlink="http://www.w3.org/1999/xlink">
    <!-- Generator: Sketch 44.1 (41455) - http://www.bohemiancoding.com/sketch -->
    <title>help@2x</title>
    <desc>Created with Sketch.</desc>
    <defs></defs>
    <g id="Page-1" stroke="none" stroke-width="1" fill="none" fill-rule="evenodd">
        <g id="个人中心-copy-4" transform="translate(-27.000000, -872.000000)" fill="#333333">
            <g id="Group-13-Copy" transform="translate(2.000000, 671.000000)">
                <g id="Group-10" transform="translate(25.000000, 201.000000)">
                    <g id="help">
                        <path d="M15.0024702,43.013799 L15.4839012,43.2091141 C18.9798978,44.6255537 22.1964225,45.365247 25.4691652,45.365247 C37.8546848,45.365247 47.9447189,35.9034072 47.9447189,24.2082624 C47.9447189,12.5274276 37.8546848,3.05860307 25.4691652,3.05860307 C13.209029,3.05860307 2.99361158,12.7297274 2.99361158,24.2082624 C2.99361158,29.5116695 4.36107325,33.3143952 8.10127768,37.5431005 L8.65264055,38.1639693 L6.49625213,45.4979557 L15.0024702,43.013799 Z M0,24.215247 C0,11.0411414 11.5833049,0.065076661 25.4691652,0.065076661 C39.4667802,0.065076661 50.9383305,10.8248722 50.9383305,24.215247 C50.9383305,37.5989779 39.4667802,48.3587734 25.4691652,48.3587734 C21.9312606,48.3587734 18.4914821,47.6051959 14.8487223,46.1817717 L2.07955707,49.9149915 L5.31703578,38.8969336 C1.47930153,34.3471891 0,29.9651618 0,24.215247 Z" id="Fill-1"></path>
                        <path d="M23.1247019,36.566184 L26.4460818,36.566184 L26.4460818,32.5397785 L23.1247019,32.5397785 L23.1247019,36.566184 Z M19.4683986,12.0599659 C20.7939523,10.3853492 22.7896934,9.70851789 25.1134583,9.70851789 C27.4368825,9.70851789 29.0975298,10.3783646 30.4235094,11.7248722 C31.749063,13.0648211 32.4192504,14.7464225 32.4192504,16.7561329 C32.4192504,18.1026405 32.0841567,19.1074957 31.7560477,19.777598 C31.4213799,20.4474446 30.430494,21.7939523 28.7698467,23.1339012 C27.4438671,24.4734242 26.7810903,25.4852641 26.4460818,26.1553663 C26.1109881,26.8252129 26.1109881,28.1717206 26.1109881,29.5116695 L23.1247019,29.5116695 C23.1247019,27.8370528 23.4594549,26.4901193 23.7875639,25.4852641 C24.1225724,24.4804089 24.7853492,23.1339012 26.1109881,21.7939523 L27.4368825,20.4474446 C27.7719761,20.1123509 28.0997445,19.777598 28.434753,19.1074957 C28.7698467,18.4377342 29.0975298,17.432879 29.0975298,16.7561329 C29.0975298,15.4091993 28.762862,14.4043441 28.0997445,13.7345826 C27.4368825,12.7297274 26.4390971,12.3949744 24.7783646,12.3949744 C22.7896934,12.3949744 21.7918228,13.0648211 20.7939523,14.7464225 C20.4589438,15.416184 20.4589438,16.7631175 20.4589438,18.1026405 L17.4726576,18.1026405 C17.4796422,15.7512777 18.1424191,13.3998296 19.4683986,12.0599659 C19.4683986,12.0599659 18.1424191,13.3998296 19.4683986,12.0599659 Z" id="Fill-2"></path>
                    </g>
                </g>
            </g>
        </g>
    </g>
</svg>