<?xml version="1.0" encoding="UTF-8"?>
<svg width="81px" height="80px" viewBox="0 0 81 80" version="1.1" xmlns="http://www.w3.org/2000/svg" xmlns:xlink="http://www.w3.org/1999/xlink">
    <!-- Generator: Sketch 44.1 (41455) - http://www.bohemiancoding.com/sketch -->
    <title>Group 2 Copy 7@2x</title>
    <desc>Created with Sketch.</desc>
    <defs>
        <linearGradient x1="13.3007812%" y1="12.5260417%" x2="88.4440104%" y2="90.3808594%" id="linearGradient-1">
            <stop stop-color="#F5C640" offset="0%"></stop>
            <stop stop-color="#FADE8E" offset="100%"></stop>
        </linearGradient>
    </defs>
    <g id="Page-1" stroke="none" stroke-width="1" fill="none" fill-rule="evenodd">
        <g id="个人中心-copy-4" transform="translate(-238.000000, -492.000000)">
            <g id="Group-8-Copy" transform="translate(0.000000, 462.000000)">
                <g id="Group-7" transform="translate(222.666667, 30.000000)">
                    <g id="Group-2-Copy-7" transform="translate(16.000000, 0.000000)">
                        <path d="M40,80 C69.7777778,80 80,70.2222222 80,40 C80,9.77777778 69.7777778,0 40,0 C10.2222222,3.64672602e-15 0,9.77777778 0,40 C1.85057739e-15,70.2222222 10.2222222,80 40,80 Z" id="Oval-5-Copy" fill="url(#linearGradient-1)"></path>
                        <g id="销售-3" transform="translate(17.333333, 20.000000)" fill="#FFFFFF">
                            <g id="Group-3">
                                <path d="M31.4677387,0.00763819095 L37.0511223,5.59102178 L25.9827806,16.6546734 L16.8592965,9.82994975 C16.8344389,9.80951424 16.800134,9.80355109 16.7737353,9.78941374 C16.678459,9.72529313 16.5737353,9.68495812 16.4661977,9.64100503 C16.3711893,9.60850921 16.2884422,9.56616415 16.1903518,9.54626466 C16.0840871,9.52737018 15.9827806,9.53051926 15.8736348,9.53527638 C15.7691792,9.53051926 15.6710888,9.52582915 15.5648241,9.54438861 C15.4698157,9.56328308 15.3808375,9.60850921 15.2902513,9.64281407 C15.1813735,9.68341709 15.0767169,9.72529313 14.9738023,9.79249581 C14.9471357,9.80978224 14.9175879,9.8079732 14.8958124,9.82840871 L0.661641541,20.4335008 C-0.0651926298,20.9760804 -0.218291457,22.000938 0.327705193,22.7291122 C0.654606365,23.1695812 1.18063652,23.4166164 1.7281742,23.3873367 C2.04174204,23.3731993 2.3520938,23.2640536 2.62324958,23.0677387 L15.8707538,13.1923618 L25.1515578,20.1356784 C25.2373869,20.2042211 25.3355444,20.2353769 25.4323618,20.279062 C25.4933333,20.3041876 25.5493467,20.3445226 25.6131993,20.3648911 C25.8082412,20.4369179 26.0154774,20.4690787 26.2233166,20.4598995 L26.2245896,20.4598995 C26.438191,20.4473702 26.6488442,20.3882077 26.8454271,20.2900503 C26.9124288,20.2602345 26.9671022,20.2057621 27.0278727,20.1652261 C27.1165829,20.1060637 27.2165494,20.0621106 27.2961474,19.9812395 L39.3718593,7.91149079 L45.0193635,13.558995 L45.0193635,0.00763819095 L31.4677387,0.00763819095 Z M3.49668342,38.3357454 C3.49668342,39.2185595 4.21092127,39.9330653 5.09393635,39.9330653 L6.69072027,39.9330653 C7.57353434,39.9330653 8.28777219,39.2185595 8.28777219,38.3357454 L8.28777219,27.0868342 L3.49668342,30.6580235 L3.49668342,38.3357454 Z M27.3303853,28.1813735 C27.2710218,28.2219095 27.2165494,28.2765829 27.1495477,28.3061977 C26.9514238,28.4046231 26.7407035,28.4653266 26.5271692,28.4763149 L26.5256281,28.4778559 C26.318057,28.4857621 26.1110218,28.4527303 25.9157789,28.3810385 C25.8938023,28.3747404 25.8752429,28.3622111 25.8550754,28.3514908 L25.8550754,38.3357454 C25.8550754,39.2185595 26.5693132,39.9327973 27.4521273,39.9327973 L29.0489112,39.9327973 C29.9316583,39.9327973 30.6459631,39.2185595 30.6459631,38.3357454 L30.6459631,24.9516248 L27.598392,27.9973199 C27.519129,28.078459 27.4207035,28.1237521 27.3303853,28.1813735 Z" id="Fill-1"></path>
                            </g>
                            <path d="M37.0341039,38.3357454 C37.0341039,39.2185595 37.7484087,39.9330653 38.6311558,39.9330653 L40.2279397,39.9330653 C41.1107538,39.9330653 41.8249916,39.2185595 41.8249916,38.3357454 L41.8249916,13.7786265 L37.0338358,18.5681742 L37.0338358,38.3357454 L37.0341039,38.3357454 Z M14.6759799,22.3252261 L14.6759799,38.3360134 C14.6759799,39.2188275 15.3899497,39.9330653 16.2730318,39.9330653 L17.8698157,39.9330653 C18.7526298,39.9330653 19.4668677,39.2188275 19.4668677,38.3360134 L19.4668677,23.6728978 L16.1746064,21.2087102 L14.6759799,22.3252261 Z" id="Fill-4"></path>
                        </g>
                    </g>
                </g>
            </g>
        </g>
    </g>
</svg>