<?xml version="1.0" encoding="UTF-8"?>
<svg width="80px" height="80px" viewBox="0 0 80 80" version="1.1" xmlns="http://www.w3.org/2000/svg" xmlns:xlink="http://www.w3.org/1999/xlink">
    <!-- Generator: Sketch 44.1 (41455) - http://www.bohemiancoding.com/sketch -->
    <title>Group 6 Copy@2x</title>
    <desc>Created with Sketch.</desc>
    <defs>
        <linearGradient x1="14.9153646%" y1="12.6595052%" x2="83.0696615%" y2="89.3522135%" id="linearGradient-1">
            <stop stop-color="#F66471" offset="0%"></stop>
            <stop stop-color="#F99FA6" offset="100%"></stop>
        </linearGradient>
    </defs>
    <g id="Page-1" stroke="none" stroke-width="1" fill="none" fill-rule="evenodd">
        <g id="个人中心-copy-4" transform="translate(-624.000000, -492.000000)">
            <g id="Group-8-Copy" transform="translate(0.000000, 462.000000)">
                <g id="Group-2" transform="translate(608.000000, 30.000000)">
                    <g id="Group-6-Copy" transform="translate(16.000000, 0.000000)">
                        <path d="M40,80 C69.7777778,80 80,70.2222222 80,40 C80,9.77777778 69.7777778,0 40,0 C10.2222222,3.64672602e-15 0,9.77777778 0,40 C1.85057739e-15,70.2222222 10.2222222,80 40,80 Z" id="Oval-5-Copy-3" fill="url(#linearGradient-1)"></path>
                        <g id="销售" transform="translate(22.000000, 20.000000)" fill="#FFFFFF">
                            <g id="Group-4">
                                <path d="M13.3555166,2.45668293 L16.7499644,2.45668293 L16.7499644,4.15507317 L14.2243409,4.15507317 C13.5374404,4.15507317 12.9917183,4.6944878 12.9917183,5.37380488 C12.9917183,6.05312195 13.5374404,6.59258537 14.2243409,6.59258537 L21.7203617,6.59258537 C22.4073116,6.59258537 22.9528364,6.05312195 22.9528364,5.37380488 C22.9528364,4.6944878 22.4073116,4.15507317 21.7203617,4.15507317 L19.1947876,4.15507317 L19.1947876,2.45668293 L22.6296848,2.45668293 C23.3166347,2.45668293 23.8621102,1.91726829 23.8621102,1.2377561 C23.8621102,0.558439024 23.3166347,0.0390243902 22.6497122,0.0390243902 L13.3555166,0.0390243902 C12.6685667,0.0390243902 12.1230913,0.578487805 12.1230913,1.2577561 C12.1431187,1.91726829 12.6887914,2.45668293 13.3555166,2.45668293 Z M7.81936969,14.7046341 C7.81936969,15.3840976 8.36484516,15.923561 9.05179501,15.923561 L26.8524582,15.923561 C27.5394081,15.923561 28.0849329,15.3840976 28.0849329,14.7046341 C28.0849329,14.0253171 27.5394081,13.4858537 26.8524582,13.4858537 L9.03157029,13.4858537 C8.36484516,13.4858537 7.81936969,14.0253171 7.81936969,14.7046341 Z M9.03157029,22.4770732 L26.8322335,22.4770732 C27.5191833,22.4770732 28.0647081,21.9376585 28.0647081,21.2583415 C28.0647081,20.5790244 27.5191833,20.0394146 26.8322335,20.0394146 L9.03157029,20.0394146 C8.34462044,20.0394146 7.79909564,20.5790244 7.79909564,21.2583415 C7.81936969,21.9376585 8.36484516,22.4770732 9.03157029,22.4770732 Z" id="Fill-1"></path>
                                <path d="M35.9245273,32.2875122 L35.9042532,8.19107317 C35.8638038,7.4917561 35.6820773,6.85229268 35.3992272,6.25302439 C34.8334777,4.9942439 33.9242039,4.27492683 33.1563058,3.85531707 C31.96433,3.21585366 30.8126555,3.19604878 30.6914552,3.19604878 L28.5294327,3.19604878 C27.8627569,3.19604878 27.3170348,3.73546341 27.2970074,4.39478049 C27.2970074,5.07409756 27.8425322,5.6135122 28.509208,5.6135122 L30.6711811,5.6135122 C30.7317073,5.6135122 31.3986298,5.65356098 32.0653056,6.03312195 C32.8734557,6.49273171 33.3382297,7.27185366 33.4796547,8.39078049 L33.4998794,34.3654146 C33.4998794,36.1238049 32.126029,37.542439 30.4488572,37.542439 L19.4776377,37.542439 L19.4776377,37.562439 L5.47547273,37.562439 C3.79849822,37.562439 2.42459852,36.1438049 2.42459852,34.3854634 C2.42459852,34.3854634 2.42459852,8.53063415 2.44482324,8.41078049 C2.5660729,7.29190244 3.03079748,6.51273171 3.85917238,6.05312195 C4.52589751,5.67356098 5.19262264,5.6335122 5.25329679,5.6335122 L7.41526994,5.6335122 C8.10221979,5.6335122 8.62747054,5.09409756 8.62747054,4.41478049 C8.62747054,3.75546341 8.08199507,3.21585366 7.39504522,3.21585366 L5.23307207,3.21585366 C5.11187175,3.21585366 3.9803727,3.23585366 2.76797479,3.89536585 C1.61649767,4.51463415 0.202148534,5.79341463 0,8.43078049 L0,34.4054634 C0,37.502439 2.46509729,39.9999512 5.49569745,39.9999512 L30.4488572,39.9799512 C33.4796547,39.9799512 35.944752,37.482439 35.944752,34.4054634 L35.9245273,32.2875122 Z" id="Fill-3"></path>
                            </g>
                            <path d="M8.91036996,28.9107805 L21.1546616,28.9107805 C21.7608605,28.9107805 22.2658865,28.4113659 22.2658865,27.8119024 C22.2658865,27.212439 21.7608605,26.7129756 21.1546616,26.7129756 L8.91036996,26.7129756 C8.30417101,26.7129756 7.79909564,27.212439 7.79909564,27.8119024 C7.79909564,28.4113659 8.30417101,28.9107805 8.91036996,28.9107805 Z M20.9122609,35.1847805 C21.1141628,35.3844878 21.3970622,35.5043415 21.6799123,35.5043415 C21.9627624,35.5043415 22.2456618,35.4044878 22.447761,35.2046341 L29.2771061,28.6310732 C29.7216059,28.2114634 29.7216059,27.5121463 29.2973308,27.0925854 C28.8730063,26.6529756 28.1656344,26.6529756 27.7213319,27.0725366 L21.6799123,32.9069756 L19.9624884,31.2086341 C19.5179392,30.7890244 18.8309893,30.7890244 18.4067142,31.2286341 C17.9823897,31.6681951 17.9823897,32.3475122 18.4269389,32.767122 L20.9122609,35.1847805 Z" id="Fill-5"></path>
                        </g>
                    </g>
                </g>
            </g>
        </g>
    </g>
</svg>