<?xml version="1.0" encoding="UTF-8"?>
<svg width="35px" height="40px" viewBox="0 0 35 40" version="1.1" xmlns="http://www.w3.org/2000/svg" xmlns:xlink="http://www.w3.org/1999/xlink">
    <!-- Generator: Sketch 44.1 (41455) - http://www.bohemiancoding.com/sketch -->
    <title>password@2x</title>
    <desc>Created with Sketch.</desc>
    <defs></defs>
    <g id="Page-1" stroke="none" stroke-width="1" fill="none" fill-rule="evenodd">
        <g id="登录" transform="translate(-70.000000, -298.000000)" fill="#5BB3FD">
            <g id="password" transform="translate(70.000000, 298.000000)">
                <g id="Group-4">
                    <path d="M8.51498173,17.0681608 C8.15566382,17.0900365 7.80433618,16.9569793 7.5500609,16.7025579 C7.29559074,16.4480877 7.16238733,16.09676 7.18445798,15.737637 L7.18445798,9.88389769 C7.26591961,4.48077954 11.6262607,0.12043849 17.0293301,0.0389768575 L17.8277223,0.0389768575 C23.2307917,0.12043849 27.5911815,4.48077954 27.6725944,9.88389769 C27.6725944,10.6187089 27.0769306,11.2143727 26.3423143,11.2143727 C25.607503,11.2143727 25.0117905,10.6187089 25.0117905,9.88389769 C25.0195859,7.97612667 24.2651888,6.14436054 22.9161998,4.7953715 C21.5672594,3.44643118 19.7354446,2.69198538 17.8277223,2.69978076 L17.0293301,2.69978076 C15.1216078,2.69198538 13.2897929,3.44643118 11.9408526,4.7953715 C10.5918636,6.14436054 9.8374665,7.97612667 9.84526188,9.88389769 L9.84526188,15.737637 C9.86733252,16.09676 9.73412911,16.4480877 9.47985384,16.7025579 C9.2254324,16.9569793 8.87410475,17.0900365 8.51498173,17.0681608 Z" id="Fill-1"></path>
                    <path d="M28.2047259,39.9510353 L6.65232643,39.9510353 C4.88297199,39.9681851 3.18095006,39.2729354 1.92959805,38.0216322 C0.678294762,36.770475 -0.016954933,35.0685018 0.000389768575,33.2989038 L0.000389768575,21.0592935 C-0.016954933,19.2898904 0.678294762,17.5879172 1.92959805,16.3365652 C3.18095006,15.085408 4.88297199,14.3900122 6.65232643,14.4073082 L28.2047259,14.4073082 C29.974324,14.3900122 31.6762972,15.085408 32.9274543,16.3365652 C34.1788063,17.5879172 34.8740073,19.2898904 34.8567113,21.0592935 L34.8567113,33.2989038 C34.8740073,35.0685018 34.1788063,36.770475 32.9274543,38.0216322 C31.6762972,39.2729354 29.974324,39.9681851 28.2047259,39.9510353 Z M6.65232643,17.0681608 C4.47054811,17.1214129 2.71429963,18.8774665 2.66119367,21.0592935 L2.66119367,33.2989038 C2.71429963,35.4807308 4.47054811,37.2369306 6.65232643,37.2902314 L28.2047259,37.2902314 C30.386553,37.2369306 32.1427527,35.4807308 32.1960536,33.2989038 L32.1960536,21.0592935 C32.1427527,18.8774665 30.386553,17.1214129 28.2047259,17.0681608 L6.65232643,17.0681608 Z" id="Fill-3"></path>
                </g>
                <path d="M14.9008526,23.9861632 C14.9006577,24.93676 15.4078441,25.8154933 16.2311815,26.2907186 C17.0544702,26.7660901 18.0688429,26.7660901 18.8921803,26.2907186 C19.7152741,25.8154933 20.2224604,24.93676 20.2222655,23.9861632 C20.2224604,23.0355177 19.7152741,22.157028 18.8921803,21.6816078 C18.0688429,21.2061876 17.0544702,21.2061876 16.2311815,21.6816078 C15.4078441,22.157028 14.9006577,23.0355177 14.9008526,23.9861632 Z" id="Fill-5"></path>
                <path d="M17.5616565,33.032838 C17.2025335,33.0549086 16.851011,32.9219001 16.5967357,32.66743 C16.3423143,32.4130085 16.2090621,32.0616809 16.2311815,31.7025579 L16.2311815,26.3809013 C16.2090621,26.0217783 16.3423143,25.6704507 16.5967357,25.4159805 C16.851011,25.1615591 17.2025335,25.0285018 17.5616565,25.0503776 C17.9207795,25.0285018 18.2721072,25.1615591 18.5265773,25.4159805 C18.7808526,25.6704507 18.914056,26.0217783 18.8919854,26.3809013 L18.8919854,31.7025579 C18.8453593,32.4170037 18.2761023,32.9862119 17.5616565,33.032838 Z" id="Fill-6"></path>
            </g>
        </g>
    </g>
</svg>