<?xml version="1.0" encoding="UTF-8"?>
<svg width="80px" height="80px" viewBox="0 0 80 80" version="1.1" xmlns="http://www.w3.org/2000/svg" xmlns:xlink="http://www.w3.org/1999/xlink">
    <!-- Generator: Sketch 44.1 (41455) - http://www.bohemiancoding.com/sketch -->
    <title>Group Copy 10@2x</title>
    <desc>Created with Sketch.</desc>
    <defs>
        <linearGradient x1="12.6578776%" y1="10.711263%" x2="81.8033854%" y2="92.03125%" id="linearGradient-1">
            <stop stop-color="#379CE2" offset="0%"></stop>
            <stop stop-color="#81C6F6" offset="100%"></stop>
        </linearGradient>
    </defs>
    <g id="Page-1" stroke="none" stroke-width="1" fill="none" fill-rule="evenodd">
        <g id="个人中心-copy-4" transform="translate(-46.000000, -492.000000)">
            <g id="Group-8-Copy" transform="translate(0.000000, 462.000000)">
                <g id="Group" transform="translate(30.000000, 30.000000)">
                    <g id="Group-Copy-10" transform="translate(16.000000, 0.000000)">
                        <path d="M40,80 C69.7777778,80 80,70.2222222 80,40 C80,9.77777778 69.7777778,0 40,0 C10.2222222,3.64672602e-15 0,9.77777778 0,40 C1.85057739e-15,70.2222222 10.2222222,80 40,80 Z" id="Oval-5" fill="url(#linearGradient-1)"></path>
                        <g id="培训" transform="translate(20.000000, 20.000000)" fill="#FFFFFF">
                            <path d="M10.4001791,11.6297313 C11.3992836,14.6619104 14.1795821,14.6565373 15.1751642,11.6297313 C15.5032836,11.4567164 15.8416716,10.9452537 15.8962388,10.5219701 C15.9545075,10.0788657 15.9204776,9.48889552 15.4743284,9.48889552 C15.3768358,8.0681791 14.5965373,6.86525373 12.8244179,6.86525373 C11.0930746,6.86525373 10.2105672,7.90889552 10.101194,9.48889552 C9.65510448,9.48889552 9.62077612,10.0786866 9.67934328,10.5219701 C9.73391045,10.9452537 10.0718209,11.4567164 10.4001791,11.6297313 Z" id="Fill-1"></path>
                            <path d="M16.8178507,29.0210746 L16.8178507,27.9662687 C17.9773731,27.9662687 18.9169552,27.0247761 18.9169552,25.8638806 L18.9169552,25.7936716 L27.0888358,17.6232239 C27.3103881,17.4020896 27.3103881,17.0443582 27.0888358,16.8244776 C26.8689552,16.6031642 26.511403,16.6031642 26.2915224,16.8244776 L18.9169552,24.1957015 L18.9169552,17.2351642 C18.9169552,15.7213731 17.8134328,14.4123582 16.2693731,14.0877612 L15.1401791,13.8540896 L12.7877612,18.5392239 L10.435403,13.8540896 L9.30734328,14.0877612 C7.76214925,14.4123582 6.66065672,15.7213731 6.66065672,17.2351642 L6.66065672,25.8638806 C6.66065672,27.0247761 7.59910448,27.9662687 8.75886567,27.9662687 L8.75886567,29.0210746 L16.8178507,29.0210746 Z" id="Fill-2"></path>
                            <path d="M0,21.7535522 C0,24.9753433 2.62101493,27.5961194 5.84119403,27.5961194 L5.90949254,27.5961194 C5.60071642,27.0896119 5.4158209,26.4995821 5.4158209,25.8638806 L5.4158209,25.0644179 C3.76985075,24.8512836 2.48973134,23.4568955 2.48973134,21.7535522 L2.48973134,5.8720597 C2.48973134,4.02316418 3.99349254,2.51964179 5.84119403,2.51964179 L33.7241194,2.51964179 C35.5718209,2.51964179 37.076,4.02316418 37.076,5.8720597 L37.076,21.7535522 C37.076,23.6031642 35.5718209,25.1063881 33.7241194,25.1063881 L21.3642985,25.1063881 L20.118209,26.3526567 C20.0466269,26.8111642 19.8631045,27.2204776 19.6345672,27.5961194 L33.7241194,27.5961194 C36.9442388,27.5961194 39.5653134,24.9753433 39.5653134,21.7535522 L39.5653134,5.8720597 C39.5653134,2.65074627 36.9442388,0.0299104478 33.7241194,0.0299104478 L5.84119403,0.0299104478 C2.62101493,0.0299104478 0,2.65074627 0,5.8720597 L0,21.7535522 Z" id="Fill-3"></path>
                            <path d="M8.18029851,31.0709851 L3.82322388,31.0709851 C1.71152239,31.0709851 0,32.7825075 0,34.8925373 L0,39.9403582 L12.0020896,39.9403582 L12.0020896,34.8925373 C12.0023284,32.7825075 10.290806,31.0709851 8.18029851,31.0709851 Z" id="Fill-4"></path>
                            <path d="M22.0293731,31.0709851 L17.6723582,31.0709851 C15.5606567,31.0709851 13.8488955,32.7825075 13.8488955,34.8925373 L13.8488955,39.9403582 L25.8514627,39.9403582 L25.8514627,34.8925373 C25.8514627,32.7825075 24.1397015,31.0709851 22.0293731,31.0709851 Z" id="Fill-5"></path>
                            <path d="M35.8782687,31.0709851 L31.521194,31.0709851 C29.4094925,31.0709851 27.6979701,32.7825075 27.6979701,34.8925373 L27.6979701,39.9403582 L39.7002985,39.9403582 L39.7002985,34.8925373 C39.7002985,32.7825075 37.9883582,31.0709851 35.8782687,31.0709851 Z" id="Fill-6"></path>
                        </g>
                    </g>
                </g>
            </g>
        </g>
    </g>
</svg>