<?xml version="1.0" encoding="UTF-8"?>
<svg width="81px" height="80px" viewBox="0 0 81 80" version="1.1" xmlns="http://www.w3.org/2000/svg" xmlns:xlink="http://www.w3.org/1999/xlink">
    <!-- Generator: Sketch 44.1 (41455) - http://www.bohemiancoding.com/sketch -->
    <title>Group 7 Copy@2x</title>
    <desc>Created with Sketch.</desc>
    <defs>
        <linearGradient x1="16.7578125%" y1="11.6210938%" x2="79.4466146%" y2="90.7519531%" id="linearGradient-1">
            <stop stop-color="#4ED0A7" offset="0%"></stop>
            <stop stop-color="#7EF5D0" offset="100%"></stop>
        </linearGradient>
    </defs>
    <g id="Page-1" stroke="none" stroke-width="1" fill="none" fill-rule="evenodd">
        <g id="个人中心-copy-4" transform="translate(-431.000000, -492.000000)">
            <g id="Group-8-Copy" transform="translate(0.000000, 462.000000)">
                <g id="Group-6" transform="translate(415.333333, 30.000000)">
                    <g id="Group-7-Copy" transform="translate(16.000000, 0.000000)">
                        <path d="M40,80 C69.7777778,80 80,70.2222222 80,40 C80,9.77777778 69.7777778,0 40,0 C10.2222222,3.64672602e-15 0,9.77777778 0,40 C1.85057739e-15,70.2222222 10.2222222,80 40,80 Z" id="Oval-5-Copy-2" fill="url(#linearGradient-1)"></path>
                        <g id="清单" transform="translate(22.000000, 20.000000)" fill="#FFFFFF">
                            <path d="M8.00253968,10.8479609 L15.136801,10.8479609 L15.136801,8.55228327 L8.00253968,8.55228327 L8.00253968,10.8479609 Z M8.00253968,25.116337 L27.979243,25.116337 L27.979243,22.8208547 L8.00253968,22.8208547 L8.00253968,25.116337 Z M8.00253968,17.9265446 L15.136801,17.9265446 L15.136801,15.6308669 L8.00253968,15.6308669 L8.00253968,17.9265446 Z" id="Fill-1"></path>
                            <g id="Group-5">
                                <path d="M25.3487668,8.60800977 L20.6206105,8.60800977 C19.044591,8.60800977 17.9899389,9.66266178 17.9899389,11.2386813 L17.9899389,15.9660562 C17.9899389,17.5421245 19.044591,18.5965812 20.6206105,18.5965812 L25.3487668,18.5965812 C26.924591,18.5965812 27.979243,17.5421245 27.979243,15.9660562 L27.979243,11.2386813 C27.979243,9.66266178 26.924591,8.60800977 25.3487668,8.60800977 Z M26.4058608,15.3551648 C26.4058608,16.314823 25.6963614,17.0237363 24.7378755,17.0237363 L21.2326252,17.0237363 C20.2730159,17.0237363 19.5634676,16.3142369 19.5634676,15.3551648 L19.5634676,11.8499634 C19.5634676,10.8903053 20.2730159,10.1813919 21.2326252,10.1813919 L24.7378755,10.1813919 C25.6963614,10.1813919 26.4058608,10.8910867 26.4058608,11.8499634 L26.4058608,15.3551648 Z" id="Fill-2"></path>
                                <path d="M31.7008059,0.0464957265 L4.28039072,0.0464957265 C3.14505495,0.0464957265 2.05626374,0.497484737 1.25343101,1.30051282 C0.450793651,2.1032967 -0.000195360195,3.19208791 -3.97046694e-23,4.32761905 L-3.97046694e-23,35.7190232 C-3.97046694e-23,38.0829792 1.91638584,39.9995604 4.28039072,39.9999512 L31.7008059,39.9999512 C34.0651526,39.9999512 35.9819292,38.08337 35.9819292,35.7190232 L35.9819292,4.32820513 C35.9815873,1.96385836 34.0651526,0.0472771673 31.7008059,0.0464957265 Z M33.6857143,34.8513309 C33.6857143,35.6079609 33.3850549,36.3336752 32.8500611,36.8688645 C32.3149206,37.4038095 31.5892063,37.7044689 30.8325763,37.7044689 L5.14881563,37.7044689 C4.39199023,37.7046642 3.66603175,37.4040049 3.13089133,36.869011 C2.5956044,36.3338706 2.29489621,35.6081563 2.29489621,34.8513309 L2.29489621,5.19589744 C2.29489621,4.43907204 2.5956044,3.71330891 3.13089133,3.1781685 C3.66603175,2.64302808 4.39199023,2.3425641 5.14881563,2.34275946 L30.8325763,2.34275946 C31.5892063,2.34275946 32.3149206,2.64322344 32.8500611,3.17836386 C33.3850549,3.71350427 33.6857143,4.43921856 33.6857143,5.19589744 L33.6857143,34.8513309 Z" id="Fill-4"></path>
                            </g>
                            <polygon id="Fill-6" points="8.00253968 32.251917 27.979243 32.251917 27.979243 29.9562393 8.00253968 29.9562393"></polygon>
                        </g>
                    </g>
                </g>
            </g>
        </g>
    </g>
</svg>