<?xml version="1.0" encoding="UTF-8"?>
<svg width="46px" height="50px" viewBox="0 0 46 50" version="1.1" xmlns="http://www.w3.org/2000/svg" xmlns:xlink="http://www.w3.org/1999/xlink">
    <!-- Generator: Sketch 44.1 (41455) - http://www.bohemiancoding.com/sketch -->
    <title>service@2x</title>
    <desc>Created with Sketch.</desc>
    <defs></defs>
    <g id="Page-1" stroke="none" stroke-width="1" fill="none" fill-rule="evenodd">
        <g id="个人中心-copy-4" transform="translate(-29.000000, -781.000000)" fill="#333333">
            <g id="Group-13-Copy" transform="translate(2.000000, 671.000000)">
                <g id="Group-9" transform="translate(27.000000, 110.000000)">
                    <g id="service">
                        <path d="M15.7851666,28.9313984 C14.1215532,28.9313984 12.7761786,30.2779683 12.7761786,31.9373351 C12.7761786,33.6011214 14.1215532,34.9479551 15.7851666,34.9479551 C17.0589788,34.9479551 18.1359117,34.1496702 18.5702992,33.0329815 L16.3855,31.9373351 L18.5702992,30.8479551 C18.1359117,29.725 17.0589788,28.9313984 15.7851666,28.9313984 Z M29.8129961,34.9603562 C31.0833785,34.9603562 32.1636752,34.1633905 32.5977989,33.0420185 L30.4098997,31.9509894 L32.5977989,30.8585092 C32.1636752,29.7386544 31.0833785,28.9430079 29.8129961,28.9430079 C28.1491189,28.9430079 26.804008,30.2901055 26.804008,31.9509894 C26.804008,33.6132586 28.1488551,34.9603562 29.8129961,34.9603562 Z" id="Fill-1"></path>
                        <path d="M43.4228611,27.8922164 C43.4342055,27.4191293 43.4357885,26.9383245 43.425961,26.4560026 C43.5547735,19.9328496 41.6134845,14.4342348 37.8117029,10.5529683 C35.9981711,8.70211082 33.7929913,7.28159631 31.2658134,6.31405013 C30.8734399,2.79043536 27.0471886,0.0161609499 22.3993208,0.0161609499 C17.7517827,0.0161609499 13.9257952,2.79043536 13.5334218,6.31405013 C11.0061779,7.28159631 8.80106406,8.70237467 6.98799395,10.5529683 C3.18495917,14.4342348 1.24340637,19.9222955 1.37248267,26.4255937 C1.36140202,27.0401055 1.36496366,27.6170185 1.384025,28.1810686 C0.398837171,29.1728232 -0.373312119,30.6711741 0.190943213,32.7734828 C0.610094895,34.335752 1.7656476,35.5060686 3.18370601,36.0183377 C3.90427754,36.4627968 4.75089139,36.7217678 5.65653604,36.7277045 C7.46413179,44.6329156 14.027038,49.999934 22.597717,49.999934 C31.1524347,49.999934 37.7169238,44.6195251 39.5146921,36.7093668 C39.5700953,36.721504 39.6272793,36.7284301 39.6863101,36.7284301 C40.8152825,36.7284301 41.8538289,36.3342348 42.672873,35.6774406 C43.7439359,35.0701187 44.5812499,34.0531003 44.9246838,32.7737467 C45.546387,30.4557388 44.5446442,28.8724274 43.4228611,27.8922164 Z M22.3993208,1.62216359 C25.8615598,1.62216359 28.7677221,3.38001319 29.5099933,5.72994723 C27.3493999,5.11332454 24.9881018,4.79716359 22.46066,4.79716359 L22.3377836,4.79716359 C19.8105397,4.79716359 17.4493076,5.11332454 15.2889781,5.72968338 C16.0312492,3.38001319 18.9374115,1.62216359 22.3993208,1.62216359 Z M22.6283867,48.394657 C22.6152614,48.3943931 22.579711,48.3943931 22.5667836,48.3943931 C13.2620779,48.3943931 6.76334711,41.7401055 6.76334711,32.1976253 L6.74606659,31.2895778 C6.73445829,30.9002639 6.79480822,29.8074538 6.85970913,28.7590369 C11.932137,26.9646438 14.0383825,21.8081794 14.1303254,21.5762533 C14.2939628,21.1647757 14.0940495,20.6988786 13.6825487,20.5342348 C13.2695969,20.3690633 12.8045397,20.5703166 12.6391216,20.9813325 C12.6187411,21.0315303 10.6521909,25.808971 6.14474387,27.3062665 C6.0148761,27.216095 5.12064187,26.300066 3.91720496,26.6183377 C3.91793048,26.553628 3.91872195,26.4895119 3.92004108,26.4237467 C3.80125395,20.5916887 5.49111788,15.7202507 8.80719799,12.335752 C12.0066016,9.07084433 16.6854028,7.3444591 22.3367283,7.3444591 L22.3957591,7.34551451 L22.4106652,8.28700528 L22.4756321,8.28601583 L22.46066,7.3444591 C28.1135685,7.3444591 32.7928314,9.07058047 35.9917074,12.335752 C39.3078534,15.7202507 40.9977174,20.5916887 40.8786664,26.4554749 C40.8794579,26.5010554 40.8802494,26.5459103 40.8809749,26.5912929 C39.1836579,26.5912929 38.8925272,28.0973615 38.907961,28.1594327 C38.9010356,28.1901055 38.8945719,28.2210422 38.8891634,28.2521768 C38.847677,28.4864116 38.8007821,29.1045515 38.7538873,29.8806728 C38.7253282,29.9040897 38.6982862,29.9296174 38.6735526,29.9569261 C36.2249285,27.5415567 33.0306695,26.8643799 29.9296726,26.207058 C28.3065563,25.8633245 26.6287624,25.5077836 25.0471326,24.9081794 C19.4300384,22.7769789 16.3303606,17.6891161 16.2994271,17.6377968 C16.072208,17.2577177 15.5798449,17.1338391 15.1988159,17.3608179 C14.8187763,17.5880607 14.6943169,18.0804749 14.9212722,18.4610818 C15.057076,18.6891161 18.3234252,24.0751319 24.477205,26.4096306 C26.1748518,27.053496 27.9144467,27.4222296 29.5965278,27.7783641 C32.971177,28.4933377 36.1587085,29.1687335 38.3303165,31.9878628 C38.3532693,32.0174802 38.3780029,32.0445251 38.4040556,32.0700528 L38.4009556,32.212533 C38.4009556,33.2638522 38.3216103,34.2795515 38.1682621,35.2558707 C35.3762041,39.7171504 30.7440998,42.6403694 25.0056462,43.2703826 C24.5779861,42.7058047 23.7066387,42.3167546 22.6946067,42.3167546 C21.2592678,42.3167546 20.0950088,43.0933377 20.0950088,44.0496042 C20.0950088,45.0078496 21.2592678,45.7829156 22.6946067,45.7829156 C23.9810165,45.7829156 25.0406689,45.157058 25.246782,44.3383905 C27.0979748,44.1255937 28.862765,43.6831794 30.5171445,43.0150396 C32.8802234,42.0606201 34.9627246,40.6702507 36.706145,38.8825198 C36.984678,38.5963061 37.2533836,38.3009894 37.5120638,37.9967018 C35.4344434,44.3255277 29.8799416,48.3943931 22.6283867,48.394657 Z" id="Fill-3"></path>
                    </g>
                </g>
            </g>
        </g>
    </g>
</svg>