<?xml version="1.0" encoding="UTF-8"?>
<svg width="42px" height="40px" viewBox="0 0 42 40" version="1.1" xmlns="http://www.w3.org/2000/svg" xmlns:xlink="http://www.w3.org/1999/xlink">
    <!-- Generator: Sketch 44.1 (41455) - http://www.bohemiancoding.com/sketch -->
    <title>User@2x</title>
    <desc>Created with Sketch.</desc>
    <defs></defs>
    <g id="Page-1" stroke="none" stroke-width="1" fill="none" fill-rule="evenodd">
        <g id="登录" transform="translate(-70.000000, -198.000000)" fill="#5BB3FE">
            <path d="M99.4764339,217.701456 C101.356553,215.607013 102.510193,212.849569 102.510193,209.821813 C102.510193,203.303418 97.2070134,198 90.6890936,198 C84.1697474,198 78.8663299,203.303418 78.8663299,209.821813 C78.8663299,216.340208 84.1697474,221.644101 90.6890936,221.644101 C92.986627,221.644101 95.1255869,220.973848 96.9446657,219.835067 C103.372244,222.25682 107.797623,228.13997 108.360416,234.943715 L73.0172957,234.943715 C73.4005944,230.364398 75.5493016,226.092719 79.0439227,223.046657 C79.6596137,222.509658 79.7232689,221.57682 79.187162,220.961545 C78.6524814,220.346508 77.7179792,220.280594 77.1020505,220.817831 C72.5875186,224.751025 70,230.437563 70,236.420802 C70,237.23893 70.6624071,237.899257 71.4777415,237.899257 L109.898782,237.899257 C110.716731,237.899257 111.377236,237.23893 111.377236,236.420802 C111.377236,228.314591 106.678098,221.075067 99.4764339,217.701456 Z M81.8220505,209.821813 C81.8220505,204.931887 85.7984547,200.955305 90.6890936,200.955305 C95.5783061,200.955305 99.5547103,204.931887 99.5547103,209.821813 C99.5547103,214.71156 95.5783061,218.688143 90.6890936,218.688143 C85.7984547,218.688143 81.8220505,214.71156 81.8220505,209.821813 Z" id="User"></path>
        </g>
    </g>
</svg>