<?xml version="1.0" encoding="UTF-8"?>
<svg width="48px" height="50px" viewBox="0 0 48 50" version="1.1" xmlns="http://www.w3.org/2000/svg" xmlns:xlink="http://www.w3.org/1999/xlink">
    <!-- Generator: Sketch 44.1 (41455) - http://www.bohemiancoding.com/sketch -->
    <title>user@2x</title>
    <desc>Created with Sketch.</desc>
    <defs>
        <polygon id="path-1" points="0 0.0487804878 0 49.999939 47.9227838 49.999939 47.9227838 0.0487804878"></polygon>
    </defs>
    <g id="Page-1" stroke="none" stroke-width="1" fill="none" fill-rule="evenodd">
        <g id="个人中心-copy-4" transform="translate(-28.000000, -690.000000)">
            <g id="Group-13-Copy" transform="translate(2.000000, 671.000000)">
                <g id="Group-11" transform="translate(26.000000, 19.000000)">
                    <g id="user">
                        <g id="Group-3">
                            <mask id="mask-2" fill="white">
                                <use xlink:href="#path-1"></use>
                            </mask>
                            <g id="Clip-2"></g>
                            <path d="M47.714383,17.7398171 C47.9227838,16.6991463 47.714383,15.6585366 47.0894248,14.8260976 L42.5054617,11.9121341 L42.5054617,5.25195122 C42.5054617,2.33823171 40.2134802,0.0487804878 37.2965405,0.0487804878 L10.6262433,0.0487804878 C7.7093036,0.0487804878 5.41732208,2.33823171 5.41732208,5.25195122 L5.41732208,11.9121341 L1.04175984,14.6179268 L0.833359036,14.8260976 C-6.77626358e-21,15.6585366 -0.208400802,16.6991463 0.208400802,17.7398171 L-6.77626358e-21,17.7398171 L-6.77626358e-21,44.7967683 C-6.77626358e-21,47.7104878 2.29198152,49.999939 5.20892127,49.999939 L42.7138625,49.999939 C45.6308633,49.999939 47.9227838,47.7104878 47.9227838,44.7967683 L47.714383,17.7398171 Z M45.6308633,16.2828049 C45.8392641,16.6991463 45.8392641,17.3237195 45.6308633,17.7398171 L42.5054617,19.6129268 L42.5054617,14.4097561 L45.6308633,16.2828049 Z M10.6262433,2.13006098 L37.2965405,2.13006098 C38.9633196,2.13006098 40.4219421,3.5870122 40.4219421,5.25195122 L40.4219421,20.8617073 L24.7949341,30.6440244 C24.5864722,30.8519512 24.1696706,31.060122 23.961514,31.060122 C23.7531132,31.060122 23.5447124,30.8519512 23.1279108,30.6440244 L7.50090279,20.8617073 L7.50090279,5.25195122 C7.50090279,3.5870122 8.95946424,2.13006098 10.6262433,2.13006098 Z M2.29198152,16.2828049 L5.41732208,14.4097561 L5.41732208,19.6129268 L2.29198152,17.7398171 C2.08358072,17.3237195 2.08358072,16.6991463 2.29198152,16.2828049 Z M42.7138625,47.9186585 L5.20892127,47.9186585 C3.54214216,47.9186585 2.08358072,46.4617073 2.08358072,44.7967683 L2.08358072,20.0292683 L22.2945518,32.7253049 C23.1279108,33.1414024 23.5447124,33.3495732 24.1696706,33.3495732 C24.5864722,33.3495732 25.2114915,33.1414024 26.0450947,32.7253049 L46.0476649,20.237439 L46.0476649,45.004939 C45.8392641,46.4617073 44.3806417,47.9186585 42.7138625,47.9186585 Z" id="Fill-1" fill="#333333" mask="url(#mask-2)"></path>
                        </g>
                        <path d="M12.7100682,9.83085366 L31.4624168,9.83085366 C32.087375,9.83085366 32.5041766,9.4147561 32.5041766,8.79018293 C32.5041766,8.16591463 32.087375,7.74957317 31.4624168,7.74957317 L12.7100682,7.74957317 C12.0848658,7.74957317 11.6682474,8.16591463 11.6682474,8.79018293 C11.6682474,9.4147561 12.0848658,9.83085366 12.7100682,9.83085366 Z M12.7100682,16.074878 L31.4624168,16.074878 C32.087375,16.074878 32.5041766,15.6585366 32.5041766,15.0342683 C32.5041766,14.4097561 32.087375,13.9933537 31.4624168,13.9933537 L12.7100682,13.9933537 C12.0848658,13.9933537 11.6682474,14.4097561 11.6682474,15.0342683 C11.6682474,15.6585366 12.0848658,16.074878 12.7100682,16.074878 Z M23.3363116,20.237439 L13.1266257,20.237439 C12.5016674,20.237439 12.0848658,20.6537805 12.0848658,21.2780488 C12.0848658,21.9023171 12.5016674,22.3187195 13.1266257,22.3187195 L23.3363116,22.3187195 C23.961514,22.3187195 24.3780714,21.9023171 24.3780714,21.2780488 C24.3780714,20.6537805 23.961514,20.237439 23.3363116,20.237439 Z" id="Fill-4" fill="#333333"></path>
                    </g>
                </g>
            </g>
        </g>
    </g>
</svg>