<?xml version="1.0" encoding="UTF-8"?>
<svg width="18px" height="22px" viewBox="0 0 18 22" version="1.1" xmlns="http://www.w3.org/2000/svg" xmlns:xlink="http://www.w3.org/1999/xlink">
    <!-- Generator: Sketch 44.1 (41455) - http://www.bohemiancoding.com/sketch -->
    <title> female@2x</title>
    <desc>Created with Sketch.</desc>
    <defs></defs>
    <g id="Page-1" stroke="none" stroke-width="1" fill="none" fill-rule="evenodd">
        <g id="预约-宝宝信息添加之后" transform="translate(-200.000000, -181.000000)" fill="#F37E7E">
            <g id="宝宝" transform="translate(0.000000, 130.000000)">
                <g id="宝宝信息" transform="translate(80.000000, 30.000000)">
                    <g id="Group" transform="translate(120.000000, 17.000000)">
                        <path d="M17.1030379,12.555276 C17.1030379,7.83772379 13.2669809,4 8.55156016,4 C3.83605695,4 0,7.83772379 0,12.555276 C0,17.0674661 3.51039108,20.7634054 7.9406343,21.0795332 L7.9406343,22.3334021 L3.6650054,22.3334021 C3.32763008,22.3334021 3.05416201,22.6070165 3.05416201,22.9446209 C3.05416201,23.2821153 3.32763008,23.5557297 3.6650054,23.5557297 L7.9406343,23.5557297 L7.9406343,25.3889187 C7.9406343,25.7264131 8.21421232,26 8.55156016,26 C8.88893549,26 9.16240356,25.7264131 9.16240356,25.3889187 L9.16240356,23.5548497 L13.4380325,23.5548497 C13.7753803,23.5548497 14.0489583,23.2811529 14.0489583,22.9436584 C14.0489583,22.6061365 13.7753803,22.3325496 13.4380325,22.3325496 L9.16240356,22.3325496 L9.16240356,21.0785707 C13.5926468,20.7634054 17.1030379,17.0674661 17.1030379,12.555276 Z M1.22176925,12.555276 C1.22176925,8.51155768 4.50957068,5.22230014 8.55156016,5.22230014 C12.5934397,5.22230014 15.8813511,8.51155768 15.8813511,12.555276 C15.8813511,16.5989118 12.5934397,19.8882518 8.55156016,19.8882518 C4.50957068,19.8882518 1.22176925,16.5989118 1.22176925,12.555276 Z" id="-female"></path>
                    </g>
                </g>
            </g>
        </g>
    </g>
</svg>