<?xml version="1.0" encoding="UTF-8"?>
<svg width="22px" height="22px" viewBox="0 0 22 22" version="1.1" xmlns="http://www.w3.org/2000/svg" xmlns:xlink="http://www.w3.org/1999/xlink">
    <!-- Generator: Sketch 44.1 (41455) - http://www.bohemiancoding.com/sketch -->
    <title> male@2x</title>
    <desc>Created with Sketch.</desc>
    <defs>
        <polygon id="path-1" points="0.00164645281 21.9527041 21.9527041 21.9527041 21.9527041 0 0.00164645281 0"></polygon>
    </defs>
    <g id="Page-1" stroke="none" stroke-width="1" fill="none" fill-rule="evenodd">
        <g id="预约-宝宝信息添加之后" transform="translate(-200.000000, -361.000000)">
            <g id="宝宝-copy" transform="translate(0.000000, 310.000000)">
                <g id="宝宝信息" transform="translate(80.000000, 30.000000)">
                    <g id="-male" transform="translate(120.000000, 21.000000)">
                        <mask id="mask-2" fill="white">
                            <use xlink:href="#path-1"></use>
                        </mask>
                        <g id="Clip-2"></g>
                        <path d="M21.9057528,0.376873048 C21.8111092,0.149415592 21.5892222,0.000850667285 21.3428854,0 L15.5118082,0 C15.1750262,0 14.9019072,0.273009317 14.9019072,0.60981868 C14.9019072,0.946600602 15.1750262,1.21971968 15.5118082,1.21971968 L19.8707371,1.21971968 L14.9649389,6.12477701 C13.3762491,4.73591174 11.3039413,3.88694579 9.03244011,3.88694579 C4.0518106,3.88738485 0,7.93919544 0,12.9200445 C0,17.9008935 4.0518106,21.9527041 9.03265964,21.9527041 C14.0135087,21.9527041 18.0653193,17.9008935 18.0653193,12.9200445 C18.0653193,10.6487628 17.2163533,8.576455 15.8274881,6.98757316 L20.7329844,2.08196702 L20.7329844,6.44089595 C20.7329844,6.65880398 20.8492789,6.86011027 21.0379349,6.96902313 C21.226591,7.07804574 21.4590976,7.07804574 21.6477536,6.96902313 C21.8365194,6.86011027 21.9527041,6.65880398 21.9527041,6.44089595 L21.9527041,0.60981868 C21.9524846,0.529855955 21.936514,0.450743897 21.9057528,0.376873048 Z M9.03265964,20.7329844 C4.72488051,20.7329844 1.21971968,17.2278236 1.21971968,12.9200445 C1.21971968,8.61226535 4.72488051,5.10710453 9.03265964,5.10710453 C13.3404388,5.10710453 16.8455996,8.61226535 16.8455996,12.9200445 C16.8455996,17.2278236 13.3404388,20.7329844 9.03265964,20.7329844 Z" id="Fill-1" fill="#70C9F8" mask="url(#mask-2)"></path>
                    </g>
                </g>
            </g>
        </g>
    </g>
</svg>