<?xml version="1.0" encoding="UTF-8"?>
<svg width="23px" height="30px" viewBox="0 0 23 30" version="1.1" xmlns="http://www.w3.org/2000/svg" xmlns:xlink="http://www.w3.org/1999/xlink">
    <!-- Generator: Sketch 44.1 (41455) - http://www.bohemiancoding.com/sketch -->
    <title>address@2x</title>
    <desc>Created with Sketch.</desc>
    <defs></defs>
    <g id="Page-1" stroke="none" stroke-width="1" fill="none" fill-rule="evenodd">
        <g id="预约-机构详情" transform="translate(-30.000000, -692.000000)" fill-rule="nonzero" fill="#6EE5BF">
            <g id="活动地点-copy" transform="translate(0.000000, 692.000000)">
                <g id="address" transform="translate(30.000000, 0.000000)">
                    <path d="M11.3920733,0.0254235066 C5.11156122,0.0254235066 0.00126578535,5.30649853 0.00126578535,11.7968634 C0.00126578535,18.0623499 10.2084165,29.1874768 10.6422816,29.6571336 C10.8378709,29.8700922 11.109205,29.9889836 11.3920405,29.9889836 L11.4147804,29.9889836 C11.7056668,29.9889836 11.9801228,29.8486299 12.1716372,29.6229366 L15.70598,25.4388481 C20.4019627,19.4942428 22.7826837,14.9043749 22.7826837,11.7968634 C22.7827166,5.30653244 17.6724211,0.0254235066 11.3920733,0.0254235066 L11.3920733,0.0254235066 Z M11.3920733,17.1475209 C8.53200746,17.1475209 6.21447834,14.7525769 6.21447834,11.7968973 C6.21447834,8.84121767 8.53197458,6.44627366 11.3920733,6.44627366 C14.2521721,6.44627366 16.5696683,8.84121767 16.5696683,11.7968973 C16.5696683,14.7525769 14.2521721,17.1475209 11.3920733,17.1475209 L11.3920733,17.1475209 Z" id="Shape"></path>
                </g>
            </g>
        </g>
    </g>
</svg>