<?xml version="1.0" encoding="UTF-8"?>
<svg width="50px" height="50px" viewBox="0 0 50 50" version="1.1" xmlns="http://www.w3.org/2000/svg" xmlns:xlink="http://www.w3.org/1999/xlink">
    <!-- Generator: Sketch 44.1 (41455) - http://www.bohemiancoding.com/sketch -->
    <title>fail@2x</title>
    <desc>Created with Sketch.</desc>
    <defs></defs>
    <g id="Page-1" stroke="none" stroke-width="1" fill="none" fill-rule="evenodd">
        <g id="预约-提交成功-copy" transform="translate(-285.000000, -521.000000)">
            <g id="添加信息" transform="translate(105.000000, 492.000000)">
                <g id="Group" transform="translate(180.000000, 29.000000)">
                    <g id="fail">
                        <path d="M45.7085189,21.5402139 C45.8941249,22.6724876 45.9874459,23.8179677 45.9875613,24.9653531 C45.9875613,36.5757384 36.5757384,45.9875613 24.9653531,45.9875613 C13.35522,45.9875613 3.94314495,36.5757384 3.94314495,24.9653531 C3.94314495,13.35522 13.35522,3.94314495 24.9653531,3.94314495 C27.7683815,3.94314495 30.4428536,4.49316364 32.8879413,5.48884366 L32.8879413,1.28354498 C30.3432856,0.431293295 27.6864584,0 24.9653531,0 C21.5966778,0 18.3268141,0.660677806 15.2465079,1.96363224 C12.2728276,3.22146599 9.60339682,5.02100008 7.31207241,7.31207241 C5.02074801,9.60364889 3.22121392,12.2730796 1.96363224,15.2465079 C0.660677806,18.3268141 0,21.5966778 0,24.9653531 C0,28.3340285 0.660677806,31.6038921 1.96363224,34.6841984 C3.22146599,37.6578787 5.02100008,40.3273095 7.31207241,42.6186339 C9.60364889,44.9102103 12.2730796,46.7097444 15.2465079,47.967074 C18.3265621,49.2702805 21.5964257,49.9307063 24.9653531,49.9307063 C28.3342806,49.9307063 31.6038921,49.2702805 34.6844505,47.967074 C37.6576267,46.7097444 40.3270574,44.9099583 42.6186339,42.6186339 C44.9102103,40.3270574 46.7097444,37.6576267 47.967074,34.6844505 C49.2702805,31.6038921 49.9307063,28.3340285 49.9307063,24.9653531 C49.9307063,23.8111205 49.8533205,22.667979 49.698549,21.5402139 L45.7085189,21.5402139 Z" id="Shape" fill="#F65353" fill-rule="nonzero"></path>
                        <g id="Group-3" transform="translate(25.500000, 25.500000) rotate(45.000000) translate(-25.500000, -25.500000) translate(13.000000, 13.000000)" stroke="#F65353" stroke-width="4" stroke-linecap="square">
                            <path d="M12.5,0.568181818 L12.5,24.4588591" id="Line"></path>
                            <path d="M0.568181818,12.5 L24.4588591,12.5" id="Line"></path>
                        </g>
                    </g>
                </g>
            </g>
        </g>
    </g>
</svg>