<?xml version="1.0" encoding="UTF-8"?>
<svg width="30px" height="29px" viewBox="0 0 30 29" version="1.1" xmlns="http://www.w3.org/2000/svg" xmlns:xlink="http://www.w3.org/1999/xlink">
    <!-- Generator: Sketch 44.1 (41455) - http://www.bohemiancoding.com/sketch -->
    <title>number@2x</title>
    <desc>Created with Sketch.</desc>
    <defs>
        <polygon id="path-1" points="0.00211764706 0.0168323864 0.00211764706 28.0895241 29.9812588 28.0895241 29.9812588 0.0168323864"></polygon>
    </defs>
    <g id="Page-1" stroke="none" stroke-width="1" fill="none" fill-rule="evenodd">
        <g id="发现-活动详情" transform="translate(-30.000000, -862.000000)">
            <g id="简介" transform="translate(0.000000, 568.000000)">
                <g id="报名人数" transform="translate(30.000000, 294.000000)">
                    <g id="number">
                        <mask id="mask-2" fill="white">
                            <use xlink:href="#path-1"></use>
                        </mask>
                        <g id="Clip-2"></g>
                        <path d="M29.9812588,21.3717685 L28.1680235,21.3717685 C27.8166,17.9069247 24.9211059,15.276456 21.4633765,15.276456 C20.9994353,15.276456 20.5215882,15.3330611 20.0858118,15.4179332 C20.5778471,14.9087003 20.9994353,14.3430398 21.3508588,13.7207386 C21.4492941,13.7349077 21.5335412,13.7490412 21.6319765,13.7490412 C23.9511882,13.7490412 25.8347294,11.8540483 25.8347294,9.52056108 C25.8347294,7.18707386 23.9511882,5.29193892 21.6319765,5.29193892 C21.5335412,5.29193892 21.4492941,5.32024148 21.3508588,5.32024148 C21.0275647,4.76867898 20.6480118,4.24545455 20.2123765,3.77869318 C20.6620941,3.665625 21.126,3.59488636 21.6179294,3.59488636 C24.8788941,3.59488636 27.5073529,6.25365767 27.5073529,9.52056108 C27.5073529,11.4862926 26.5374706,13.3389915 24.9070235,14.442081 C27.7462941,15.6441761 29.6860588,18.3029474 29.9812588,21.3717685 Z" id="Fill-1" fill="#6EE5BF" mask="url(#mask-2)"></path>
                        <path d="M24.3448235,27.9480469 C24.3166941,22.5738991 20.8308353,17.8644886 15.7144235,16.2947798 C18.3710118,14.724929 19.9874824,11.8540483 19.9874824,8.75678267 C19.9874824,3.93430398 16.1080588,0.0168323864 11.3008588,0.0168323864 C7.9416,0.0168323864 4.89141176,1.9684304 3.45772941,5.00909091 C1.40555294,9.37908381 3.24691765,14.5975852 7.59017647,16.662358 C3.03610588,18.5150568 0.0281294118,22.9840909 0,27.9339134 L0,28.0753906 L24.3448235,28.0895241 L24.3448235,27.9480469 Z" id="Fill-3" fill="#6EE5BF" mask="url(#mask-2)"></path>
                    </g>
                </g>
            </g>
        </g>
    </g>
</svg>