<?xml version="1.0" encoding="UTF-8"?>
<svg width="27px" height="30px" viewBox="0 0 27 30" version="1.1" xmlns="http://www.w3.org/2000/svg" xmlns:xlink="http://www.w3.org/1999/xlink">
    <!-- Generator: Sketch 44.1 (41455) - http://www.bohemiancoding.com/sketch -->
    <title>phone@2x</title>
    <desc>Created with Sketch.</desc>
    <defs>
        <polygon id="path-1" points="0 0.0292558466 0 29.9999634 26.398158 29.9999634 26.398158 0.0292558466"></polygon>
    </defs>
    <g id="Page-1" stroke="none" stroke-width="1" fill="none" fill-rule="evenodd">
        <g id="预约-机构详情" transform="translate(-30.000000, -764.000000)">
            <g id="电话" transform="translate(30.000000, 764.000000)">
                <g id="phone">
                    <mask id="mask-2" fill="white">
                        <use xlink:href="#path-1"></use>
                    </mask>
                    <g id="Clip-2"></g>
                    <path d="M20.7843166,29.9999634 L20.6338692,29.9999634 C17.118969,29.8127561 12.3739934,26.4238902 7.937483,20.9379512 L6.29759069,18.915878 C1.86111699,13.429939 -0.472840209,8.07504878 0.0801112656,4.57386585 C0.456193235,2.12107317 4.04073139,0.0428414634 6.08312769,0.0428414634 C6.7124421,-0.043902439 7.32426433,0.291073171 7.58767605,0.866707317 C8.83450868,3.06914634 9.71117582,5.45989024 10.1830238,7.944 L10.1830238,8.03758537 L10.1509793,8.11247561 C9.88815557,8.69970732 9.41373518,9.16730488 8.82146304,9.42310976 C8.21812967,9.62264634 7.79107782,10.1595366 7.73437522,10.789939 C7.71941866,11.0145732 7.90562223,12.0069512 10.8318516,15.6955244 L12.0844537,17.2495244 C15.0201273,20.7881707 15.9434281,21.1813171 16.1597652,21.2000488 C16.7893736,21.2784878 17.4033273,20.9669634 17.709367,20.4137561 C18.0831706,19.8935488 18.6349828,19.5272561 19.2609899,19.3839146 L19.3531546,19.3651829 L19.4434452,19.3839146 C21.7868467,20.3742805 23.951431,21.7405244 25.8508397,23.4281707 C26.4060696,23.9013659 26.5583912,24.6942439 26.2176244,25.3378902 C25.6345026,27.2101829 23.1013329,29.9999634 20.7899024,29.9999634 L20.7843166,29.9999634 Z" id="Fill-1" fill="#6EE5BF" mask="url(#mask-2)"></path>
                </g>
            </g>
        </g>
    </g>
</svg>