<?xml version="1.0" encoding="UTF-8"?>
<svg width="30px" height="30px" viewBox="0 0 30 30" version="1.1" xmlns="http://www.w3.org/2000/svg" xmlns:xlink="http://www.w3.org/1999/xlink">
    <!-- Generator: Sketch 44.1 (41455) - http://www.bohemiancoding.com/sketch -->
    <title>time@2x</title>
    <desc>Created with Sketch.</desc>
    <defs></defs>
    <g id="Page-1" stroke="none" stroke-width="1" fill="none" fill-rule="evenodd">
        <g id="发现-活动详情" transform="translate(-30.000000, -718.000000)" fill-rule="nonzero" fill="#6EE5BF">
            <g id="简介" transform="translate(0.000000, 568.000000)">
                <g id="活动时间" transform="translate(0.000000, 150.000000)">
                    <g id="time" transform="translate(30.000000, 0.000000)">
                        <path d="M15.0078587,0.0117745752 C6.73299013,0.0117745752 0.0243485294,6.71817562 0.0243485294,14.993178 C0.0243485294,23.2679797 6.73302356,29.9755177 15.0078587,29.9755177 C23.2816906,29.9755177 29.9892287,23.2679797 29.9892287,14.993178 C29.9892287,6.71817559 23.2816906,0.0117745752 15.0078587,0.0117745752 L15.0078587,0.0117745752 Z M22.5009348,16.6466535 L14.5457323,16.6466535 C14.3774888,16.6466535 14.2159669,16.6131452 14.067855,16.5503089 C13.6281677,16.3640739 13.3183334,15.9275635 13.3183334,15.4194552 L13.3183334,7.46421931 C13.3183334,6.78562686 13.8680427,6.23588402 14.5457658,6.23588402 C15.2257293,6.23588402 15.7754387,6.78562686 15.7754387,7.46421931 L15.7754387,14.1898157 L22.5009682,14.1898157 C23.1798282,14.1898157 23.7293035,14.7395251 23.7293035,15.4183516 C23.7292701,16.0969441 23.1795941,16.6466535 22.5009348,16.6466535 L22.5009348,16.6466535 Z" id="Shape"></path>
                    </g>
                </g>
            </g>
        </g>
    </g>
</svg>